PathFileType	4	(X/Y/Z)	s08c0101.trc
DataRate	CameraRate	NumFrames	NumMarkers	Units	OrigDataRate	OrigDataStartFrame	OrigNumFrames
200	200	4	50	mm	200	0	2000
Frame#	Time	racr			lacr			c7			jug			rlel			rdr			llel			ldr			s2			lic			ric			lasi			rasi			rpsi			lpsi			rgt			lgt			rth1			rth2			rth3			rth4			rlfc			rmfc			rsh1			rsh2			rsh3			rsh4			rlmal			rmmal			rcal			rtoe			rmt5			lth1			lth2			lth4			lth3			llfc			lmfc			llmal			lmmal			lcal			lmt5			lsh1			lsh2			lsh3			lsh4			ltoe			SBIKE			LBIKE			RBIKE			
		X1	Y1	Z1	X2	Y2	Z2	X3	Y3	Z3	X4	Y4	Z4	X5	Y5	Z5	X6	Y6	Z6	X7	Y7	Z7	X8	Y8	Z8	X9	Y9	Z9	X10	Y10	Z10	X11	Y11	Z11	X12	Y12	Z12	X13	Y13	Z13	X14	Y14	Z14	X15	Y15	Z15	X16	Y16	Z16	X17	Y17	Z17	X18	Y18	Z18	X19	Y19	Z19	X20	Y20	Z20	X21	Y21	Z21	X22	Y22	Z22	X23	Y23	Z23	X24	Y24	Z24	X25	Y25	Z25	X26	Y26	Z26	X27	Y27	Z27	X28	Y28	Z28	X29	Y29	Z29	X30	Y30	Z30	X31	Y31	Z31	X32	Y32	Z32	X33	Y33	Z33	X34	Y34	Z34	X35	Y35	Z35	X36	Y36	Z36	X37	Y37	Z37	X38	Y38	Z38	X39	Y39	Z39	X40	Y40	Z40	X41	Y41	Z41	X42	Y42	Z42	X43	Y43	Z43	X44	Y44	Z44	X45	Y45	Z45	X46	Y46	Z46	X47	Y47	Z47	X48	Y48	Z48	X49	Y49	Z49	X50	Y50	Z50	
0	0.0000	561.992072	1395.336868	-85.245801	559.174056	1392.762471	-414.609284	541.558576	1448.079816	-248.904465	519.772823	1292.401424	-243.711644	641.825041	1149.286675	-21.703148	799.941815	884.833672	-74.526647	657.812449	1148.405402	-461.179387	802.438635	887.577505	-416.885765	-9.789220	1209.616871	-233.861614	156.211561	1182.435180	-382.559871	166.761906	1193.521842	-78.235786	171.050525	1137.290877	-340.592541	174.593893	1127.024142	-105.078365	29.250681	1247.588633	-179.507036	28.654416	1248.341059	-277.006435	61.153035	1089.158756	-38.558678	93.991981	1097.437979	-423.838473	155.519110	938.593387	-29.086811	221.796981	879.969448	-30.127817	251.483992	796.524904	-41.257536	252.511107	900.011078	-40.430236	306.279925	693.563953	-60.568460	286.877531	690.331038	-170.682732	209.340611	606.286678	-29.473151	176.935287	523.779020	-49.636482	109.513582	470.908652	-56.377245	201.299313	512.365382	-81.043711	31.924726	381.901587	-67.113738	56.578762	396.368058	-153.104636	-52.681030	376.429302	-112.232921	225.442047	282.692600	-112.340082	134.444287	276.238068	-40.749191	190.694484	1010.630977	-427.919221	274.656200	986.102232	-422.155978	292.501725	1014.677924	-405.045805	335.639354	920.634742	-420.356987	428.804280	829.538405	-394.715587	430.685251	799.643704	-287.146218	316.571213	424.473228	-404.768176	338.926405	443.327490	-323.484192	250.405336	386.768548	-365.959720	463.359641	360.727395	-426.010036	399.127086	703.916233	-421.188205	394.467569	619.155462	-404.421021	350.789952	542.757254	-409.620550	414.897792	616.352625	-371.356937	537.995181	403.632652	-358.784368	-139.239380	945.652696	-229.189029	18.699726	80.239249	-428.609221	19.493299	79.940632	-31.015195	
1	0.0050	561.909959	1395.305496	-85.112839	559.181862	1392.771876	-414.489012	541.540276	1448.082012	-248.758308	519.695385	1292.367830	-243.514938	641.781905	1149.241856	-21.652051	799.926535	884.851390	-74.524688	657.805090	1148.401561	-461.119165	802.431319	887.587278	-416.891602	-9.758975	1209.585587	-233.878559	156.206471	1182.322249	-382.561541	166.710547	1193.543463	-78.207591	171.143999	1137.139772	-340.643820	174.540136	1127.157539	-105.107796	29.200428	1247.498044	-179.548314	28.705211	1248.272359	-277.056806	61.238199	1089.217918	-38.510085	93.891911	1096.972928	-423.714800	156.161403	939.168440	-29.135479	222.693366	880.840718	-30.148551	252.098594	797.192581	-41.282652	253.378263	901.042583	-40.389167	308.028388	694.788673	-60.423520	289.096414	690.959557	-169.734530	210.379945	608.047333	-29.608931	177.494789	525.854975	-49.706655	109.807426	473.485419	-56.412182	201.922548	514.296035	-80.991735	31.701840	385.014374	-67.177617	56.383171	399.428814	-153.198177	-53.074758	379.876969	-112.391851	224.876399	285.449357	-112.408485	133.875455	279.160272	-40.749947	190.329969	1009.537634	-427.914782	274.174907	984.553201	-422.158177	292.171813	1012.996471	-405.051910	334.734276	918.701864	-420.232560	427.462239	827.287877	-394.520499	429.205833	797.300319	-286.993416	317.188975	421.644579	-404.861769	339.499074	440.430392	-323.534418	251.047596	383.955829	-365.973571	464.049655	357.732711	-425.979538	398.211252	701.525381	-421.106613	394.065892	616.724749	-404.386535	350.871774	540.007081	-409.679295	414.484058	614.027221	-371.372997	538.725950	400.616434	-358.762565	-139.247281	945.656845	-229.195841	18.661671	80.200099	-428.560614	19.505410	79.919304	-31.033036	
2	0.0100	561.837148	1395.274269	-84.950758	559.193261	1392.783877	-414.378542	541.512471	1448.073712	-248.598756	519.656475	1292.322885	-243.357883	641.723792	1149.212776	-21.561956	799.926049	884.850569	-74.527662	657.821176	1148.421120	-461.049638	802.424706	887.570704	-416.855331	-9.757464	1209.549698	-233.852069	156.213277	1182.228552	-382.502665	166.653571	1193.590421	-78.171978	171.231788	1136.980866	-340.627273	174.508424	1127.295886	-105.143094	29.194144	1247.478687	-179.569227	28.743359	1248.201390	-277.075130	61.333727	1089.285806	-38.455106	93.792914	1096.495797	-423.564023	156.909096	939.685139	-29.118274	223.745283	881.816671	-30.055399	253.003373	799.601584	-40.218466	254.240807	902.018222	-40.350078	309.758702	696.070663	-60.283086	290.997963	692.162220	-169.472394	211.998679	610.028008	-29.353790	178.084629	527.936248	-49.802514	110.152443	476.016334	-56.418694	202.560957	516.273708	-80.997166	31.523319	388.085130	-67.248980	56.162811	402.550191	-153.240444	-53.214685	383.510429	-112.590558	224.374646	288.053011	-112.519752	133.358337	282.096617	-40.739485	189.957329	1008.516629	-427.895798	273.630931	983.052430	-422.155645	291.830673	1011.386310	-405.090926	333.812452	916.751522	-420.042411	426.056651	824.972829	-394.352656	427.631620	794.952024	-286.883541	317.740738	418.757924	-404.831551	339.964824	437.634046	-323.573174	251.674430	381.074024	-365.950220	464.680450	354.828087	-425.925440	397.235008	699.098334	-420.978595	393.589632	614.254502	-404.363401	350.790865	537.177990	-409.605047	413.988070	611.662790	-371.298767	539.309778	397.629797	-358.719729	-139.243397	945.663116	-229.190877	18.668416	80.182729	-428.548805	19.332681	80.239252	-30.811877	
3	0.0150	561.787402	1395.254324	-84.783161	559.115976	1394.479612	-417.629409	541.667831	1448.180189	-248.568701	519.645250	1292.285580	-243.193111	642.084418	1149.157492	-21.321210	799.956681	884.826945	-74.528053	656.261646	1148.973399	-463.452262	802.429569	887.563530	-416.865556	-9.716280	1209.501917	-233.870987	156.158064	1183.191902	-387.730255	166.858380	1193.420052	-78.047901	171.312401	1136.849632	-340.628207	173.395709	1127.658580	-107.121436	29.104287	1247.341795	-179.534849	28.796347	1248.534272	-277.168669	61.436529	1089.383867	-38.384462	93.719578	1096.096836	-423.474786	157.556345	940.209984	-29.131116	224.809217	882.595613	-29.980999	254.426433	800.718916	-40.056558	253.983130	904.009752	-41.558363	311.464706	697.306910	-60.105863	292.862166	693.605502	-169.281450	213.331117	611.909186	-29.339006	177.319640	529.959915	-51.166768	110.623204	478.711827	-56.385725	203.733783	518.186866	-80.710120	31.528467	391.062487	-67.491417	56.242343	405.535649	-153.288598	-53.472639	386.733717	-112.581608	223.671805	290.356707	-113.172767	132.884650	284.992878	-40.783785	187.210043	1008.104852	-430.285711	272.197272	982.192043	-424.020738	291.494239	1009.666874	-405.032696	332.792599	914.822902	-419.906206	424.587048	822.678520	-394.152971	426.060115	792.559476	-286.680853	318.878485	415.022140	-403.349883	340.590067	435.035962	-323.702823	252.236113	378.207461	-365.961957	464.226205	353.547630	-428.610837	394.641180	697.844920	-423.656813	393.045721	611.759361	-404.246337	350.164387	535.365223	-411.302466	413.462569	609.312846	-371.255499	539.859274	394.727142	-358.747042	-139.254330	945.680225	-229.315162	18.613518	80.309702	-428.649681	19.495249	79.919871	-31.041092	
